<?xml version="1.0" encoding="utf-8"?>
<!-- Generator: Adobe Illustrator 21.1.0, SVG Export Plug-In . SVG Version: 6.00 Build 0)  -->
<svg version="1.1" id="Calque_1" xmlns="http://www.w3.org/2000/svg" xmlns:xlink="http://www.w3.org/1999/xlink" x="0px" y="0px"
	 viewBox="0 0 100 125" style="enable-background:new 0 0 100 125;" xml:space="preserve">
<g transform="translate(0,-952.36218)">
	<path d="M43.8,971.4c-3.5,0-6.5,2.5-8.7,5.8c-2.2,3.2-3.8,7.2-3.8,10.8c0,4,0.5,8.7,3,12.1c1.2,6.7,3.4,12.6,6.3,16.9l-16.3,7.2
		l0,0c-6.1,3-10.2,8.8-10.2,15.5v14.6c0,0.6,0.4,1,1,1h67.3c0.6,0,1-0.4,1-1s-0.4-1-1-1l0,0H62l-6.4-30.2c2.1-0.9,4-2.5,5.8-4.7
		l16.7,7.3l0,0c5.5,2.8,9,7.8,9,13.8v14.6c0,0.6,0.4,1,1,1s1-0.4,1-1l0,0v-14.6c0-6.7-4.1-12.5-10.2-15.5l0,0l-16.3-7.2
		c2.9-4.2,5-10.1,6.3-16.8c3-4.1,3-8.1,3-12.2c0-3.5-0.6-7.3-3.1-10.4l0,0c-1.6-2-4.1-3.2-6.5-3.2c-1.8,0-3.8,0.8-5.7,1.8
		C50.7,971.5,46.4,971.4,43.8,971.4z M43.8,973.4c2.7,0,6.3-0.1,11.9,4.7c0.3,0.3,0.8,0.3,1.2,0.1c1.7-1.1,3.9-1.9,5.3-1.8
		c1.6,0,3.7,1.1,5,2.5l0,0c2.1,2.5,2.7,5.9,2.7,9.1c0,3.3,0,6-1.3,8.8c-0.5-3.4-1.4-7.2-4.9-9.6c-0.2-0.1-0.4-0.2-0.7-0.2
		c-0.2,0-0.3,0.1-0.5,0.2c-4,2.7-6.8,3.7-9,3.7c0,0,0,0-0.1,0c-6.2-0.5-9.7-2.9-13.5-2.9c-0.8,0-1.6,0.3-2.2,0.9
		c-0.6,0.6-1.1,1.3-1.5,2.2c-0.6,1.5-1.1,3.3-1.5,5.8c-1.2-2.6-1.4-5.9-1.4-8.9c0-3,1.3-6.8,3.4-9.8S41.3,973.4,43.8,973.4z
		 M62.8,989.2c3.1,2.4,3.6,6.6,3.9,10.3c-1.2,6.7-3.3,12.4-6.1,16.4c-2.7,4-6,6.2-9.3,6.2c-3.4,0-6.5-2.2-9.3-6.2
		c-2.7-3.9-4.8-9.6-6-16.2c0-0.1,0-0.1,0-0.2c0.6-3.5,1.2-6.1,1.8-7.6c0.3-0.8,0.7-1.3,1-1.6s0.6-0.4,1-0.4c2.8,0,6.7,2.4,13.4,2.9
		c0,0,0,0,0.1,0C56,992.9,59.1,991.7,62.8,989.2z M41.7,1018.6c1.7,2.1,3.7,3.7,5.8,4.7l-6.4,30.2H15.9v-13.7c0-6,3.6-10.9,9-13.8
		l0,0L41.7,1018.6z M49.3,1023.8c0.7,0.2,1.4,0.3,2.2,0.3s1.4-0.1,2.2-0.3l6.3,29.6H42.9L49.3,1023.8z"/>
</g>
</svg>
