<?xml version="1.0" encoding="utf-8"?>
<!-- Generator: Adobe Illustrator 21.1.0, SVG Export Plug-In . SVG Version: 6.00 Build 0)  -->
<svg version="1.1"
	 id="Calque_1" xmlns:cc="http://creativecommons.org/ns#" xmlns:dc="http://purl.org/dc/elements/1.1/" xmlns:inkscape="http://www.inkscape.org/namespaces/inkscape" xmlns:rdf="http://www.w3.org/1999/02/22-rdf-syntax-ns#" xmlns:sodipodi="http://sodipodi.sourceforge.net/DTD/sodipodi-0.dtd" xmlns:svg="http://www.w3.org/2000/svg"
	 xmlns="http://www.w3.org/2000/svg" xmlns:xlink="http://www.w3.org/1999/xlink" x="0px" y="0px" viewBox="0 0 100 125"
	 style="enable-background:new 0 0 100 125;" xml:space="preserve">
<g transform="translate(0,-952.36218)">
	<path d="M42,959.4c-3.6,0-6.8,2.6-9.1,5.9c-2.3,3.3-3.9,7.4-3.9,11.1c0,4.1,0.5,8.9,3.1,12.4c1.3,6.9,3.5,12.9,6.5,17.3l-17,7.4
		c0,0,0,0,0,0c-6.3,3.1-10.6,9-10.6,15.9v15c0,0.6,0.4,1,1,1h70c0.6,0,1-0.4,1-1s-0.4-1-1-1c0,0,0,0,0,0H60.9l-6.7-30.9
		c2.2-0.9,4.2-2.6,6-4.8l17.4,7.5c0,0,0,0,0,0c5.7,2.9,9.4,8,9.4,14.1v15c0,0.6,0.4,1,1,1s1-0.4,1-1c0,0,0,0,0,0v-15
		c0-6.9-4.3-12.8-10.6-15.9c0,0,0,0,0,0l-17-7.4c3-4.3,5.2-10.3,6.5-17.2c3.1-4.2,3.1-8.3,3.1-12.5c0-3.6-0.6-7.5-3.2-10.7
		c0,0,0,0,0,0c-1.7-2-4.3-3.3-6.8-3.3c-1.9,0-4,0.8-5.9,1.8C49.2,959.5,44.7,959.4,42,959.4z M42,961.4c2.8,0,6.6-0.1,12.4,4.8
		c0.3,0.3,0.8,0.3,1.2,0.1c1.8-1.1,4.1-1.9,5.5-1.8c1.7,0,3.8,1.1,5.2,2.6c0,0,0,0,0,0c2.2,2.6,2.8,6,2.8,9.3c0,3.4,0,6.1-1.4,9
		c-0.5-3.5-1.5-7.4-5.1-9.8c-0.2-0.1-0.4-0.2-0.7-0.2c-0.2,0-0.3,0.1-0.5,0.2c-4.2,2.8-7.1,3.8-9.4,3.8c0,0,0,0-0.1,0
		c-6.4-0.5-10.1-3-14-3c-0.8,0-1.7,0.3-2.3,0.9s-1.1,1.3-1.6,2.3c-0.6,1.5-1.1,3.4-1.6,5.9c-1.2-2.7-1.5-6-1.5-9.1
		c0-3.1,1.4-7,3.5-10S39.4,961.4,42,961.4z M61.8,977.6c3.2,2.5,3.7,6.8,4.1,10.6c-1.2,6.9-3.4,12.7-6.3,16.8
		c-2.8,4.1-6.2,6.4-9.7,6.4c-3.5,0-6.8-2.3-9.7-6.4c-2.8-4-5-9.8-6.2-16.6c0-0.1,0-0.1,0-0.2c0.6-3.6,1.2-6.3,1.9-7.8
		c0.3-0.8,0.7-1.3,1-1.6s0.6-0.4,1-0.4c2.9,0,7,2.5,13.9,3c0,0,0,0,0.1,0C54.7,981.4,57.9,980.2,61.8,977.6z M39.8,1007.7
		c1.8,2.2,3.8,3.8,6,4.8l-6.7,30.9H13v-14c0-6.1,3.7-11.2,9.4-14.1c0,0,0,0,0,0L39.8,1007.7z M47.7,1013.1c0.7,0.2,1.5,0.3,2.3,0.3
		c0.8,0,1.5-0.1,2.3-0.3l6.6,30.3H41.1L47.7,1013.1z"/>
</g>
</svg>
