<?xml version="1.0" encoding="utf-8"?>
<!-- Generator: Adobe Illustrator 21.1.0, SVG Export Plug-In . SVG Version: 6.00 Build 0)  -->
<svg version="1.1" id="Calque_1" xmlns="http://www.w3.org/2000/svg" xmlns:xlink="http://www.w3.org/1999/xlink" x="0px" y="0px"
	 viewBox="0 0 14173.2 8503.9" style="enable-background:new 0 0 14173.2 8503.9;" xml:space="preserve">
<style type="text/css">
	.st0{fill:#00457C;}
	.st1{fill:#A3B4D1;}
	.st2{fill:#B9C5DC;}
	.st3{fill:#8199BF;}
	.st4{fill:#5579A7;}
	.st5{fill:#2A5F93;}
	.st6{fill:#285E92;}
	.st7{fill:#3A689A;}
	.st8{fill:#7D96BC;}
	.st9{fill:#889FC2;}
	.st10{fill:#C6D0E3;}
	.st11{fill:#6B89B3;}
	.st12{fill:#9AACCB;}
	.st13{fill:#99ABCB;}
	.st14{fill:#6B88B3;}
	.st15{fill:#C7D0E3;}
	.st16{fill:#B3C0D9;}
	.st17{fill:#5E7FAC;}
	.st18{fill:#A4B4D1;}
</style>
<g id="Calque_2">
</g>
<g>
	<path class="st0" d="M5486.8,1270.3c0.4,189.6,0.5,379.2,1.4,568.8c0.1,21.1-4.8,30-28.4,29.9c-179.6-0.9-359.3-0.7-538.9-0.2
		c-19.3,0.1-28.4-4.3-28.4-25.8c0.7-188.2,0.6-376.4,0.9-564.6c0-2.7,1.8-5.4,2.7-8.1C5093.1,1270.3,5290,1270.3,5486.8,1270.3z"/>
	<path class="st0" d="M12848.1,7143.3c-246.6-59.7-332.4-385.4-152.9-574.2c46.5-48.9,102.1-81.7,168.4-95.2
		c75.3-15.4,150.3-14.1,223.7,10.1c48.1,15.9,89.2,42.6,120.1,82.8c-4.8,13.8-16.8,12.5-24.8,17c-32.5,18.2-57.9,15.2-90-11.1
		c-79.6-65.2-213.9-56.3-292.6,13.8c-133,118.3-122.3,308.1-32.2,417.5c80,97.2,218,107.7,311.3,55.9
		c67.7-37.6,97.5-100.8,106.4-175.7c2.1-17.6-4.8-22.6-21.2-22.4c-59.9,0.5-119.8,0.3-179.7,0c-9.4,0-23.1,3.9-26.1-7.8
		c-4.2-16.2-5.2-34,1.2-50.2c2.8-7,12.4-5.5,19.4-5.5c92.7-0.1,185.4,0.2,278.1-0.3c18-0.1,24.9,5.7,25.2,24.5
		c2.2,184-101.8,291.5-227.9,320.6c-7.4,7.2-19.2-0.4-26.2,7.9c-48.5,0-97,0-145.5,0c-5.5-5.9-12.8-4-19.6-4.4
		C12857.8,7146.5,12852.5,7147.2,12848.1,7143.3z"/>
	<path class="st0" d="M13978.3,6551.8c-25.3-5.9-51.1-2.7-76.6-2.8c-108.4-0.4-216.8-0.1-325.2-0.2c-49.3,0-42.6-0.7-42.9,44.8
		c-0.2,45.6-0.2,91.3,0,136.9c0.1,40,0.3,40.4,38.9,40.4c108.4,0.2,216.8,0.1,325.2,0.1c8.6,0,17.2-0.6,25.7,0.1
		c12.1,1,29.5-5.6,34.1,9.5c4.3,14.3,2.7,31.3,0,46.5c-1.7,9.6-13.6,8.2-22,8.2c-25.7,0.1-51.3,0.1-77,0.1c-97,0-194-0.2-290.9,0.1
		c-33.1,0.1-33.6,0.6-33.8,32.3c-0.4,58.5-0.3,117,0,175.4c0.2,30.8,0.6,31.6,29.6,31.6c138.3,0,276.7-0.5,415-0.8
		c0,22.8,0,45.7,0,68.5c-10.4,6.7-22.1,4-33.2,4c-157.7,0.2-315.3,0.2-473-0.1c-10.9,0-22.9,4-32.4-5.6
		c-0.4-210.8-0.5-421.7-1.5-632.5c-0.1-21,7.3-26.6,27.2-26.5c170.9,1,341.9,1.1,512.8,1.4
		C13978.3,6506.2,13978.3,6529,13978.3,6551.8z"/>
	<path class="st0" d="M9826.3,7143.4c-107-28.5-194.8-107.5-202.1-269.5c-5.5-122.3-1.3-245-2.2-367.6c-0.1-19,7.4-23.6,25.1-24.4
		c74-3.6,73.9-4.1,73.9,69.8c0,94-0.3,188.1,0.1,282.1c0.2,34.1,0.8,68.2,10,101.7c26.9,98.8,101.1,155.6,203.8,154.5
		c100.5-1.1,176.1-61.9,199-160.9c6.7-29.2,9.5-58.9,9.3-89c-0.6-108.3-0.4-216.6-0.1-324.9c0.1-32.2,0.6-32.2,32.8-32.9
		c63.6-1.3,63.6-1.3,63.6,62c0,99.7,0.3,199.5-0.2,299.2c-0.2,27-0.4,54.5-5.2,80.9c-20.9,114.9-88.4,188-201.3,218.8
		c-7.4,7.1-19.2-0.5-26.3,7.9c-45.7,0-91.3,0-137,0c-8-7.6-17.9-3.2-26.9-4.4C9837,7146.5,9831.2,7147.3,9826.3,7143.4z"/>
	<path class="st0" d="M8302.9,7142.9c-68.1-21.8-128.1-56.3-171.1-114.8c-84.4-114.8-96.8-240.4-38.5-367.6
		c57.1-124.5,160.6-188.6,298.3-195.3c60.4-2.9,119.8,2.1,175.8,27.2c39,17.6,74.1,40.5,98.8,77.6c-11.9,10.1-24.6,12.4-35.8,17.8
		c-23.2,11.2-40.6,11.3-64.2-6.9c-96.4-73.9-259.9-77.3-351.3,53.3c-69.8,99.8-74.5,236.1-9.8,339
		c82.6,131.3,267.4,157.4,378.3,52.2c15.1-14.4,26.9-18.1,44.2-8.7c14.7,8,32.5,9.7,47.7,24.4c-41.5,52.6-94.7,84.9-157.7,102.4
		c-5,3.8-10.8,3-16.4,3.1c-9,1.2-19-3.2-27,4.4c-45.7,0-91.3,0-137,0c-5.5-5.9-12.8-4-19.6-4.4
		C8312.5,7146.5,8307.1,7147.3,8302.9,7142.9z"/>
	<path class="st1" d="M461.3,4026.4c5,29.3-5.8,57-8,85.6c-2.6,4.2-5.4,4.1-8.3,0.3c0-14.3,0-28.5,0-42.8
		C459.2,4058.4,448.3,4037.8,461.3,4026.4z"/>
	<path class="st2" d="M454.2,4394.4c5.6,22.7,10.2,45.5,6.9,69c-14-11.1-1.6-32.1-16.2-43c0-8.6,0-17.1,0-25.7
		C447.9,4390.9,451,4390.8,454.2,4394.4z"/>
	<path class="st3" d="M454.2,4394.4c-3.1,0.1-6.1,0.2-9.2,0.4c0-17.1,0-34.2,0-51.4C457.4,4358.7,454.7,4376.7,454.2,4394.4z"/>
	<path class="st4" d="M445,4112.2c2.8-0.3,5.5-0.3,8.3-0.3c0.9,12.4,4.5,25.4-8.3,34.5C445,4135.1,445,4123.7,445,4112.2z"/>
	<path class="st5" d="M8474.3,7151c6.6-10.1,16.6-8.8,26.5-8c2.2,2,2.8,3.9,1.8,5.6c-0.9,1.6-1.8,2.4-2.7,2.4
		C8491.4,7151,8482.8,7151,8474.3,7151z"/>
	<path class="st6" d="M9055.5,7143.1c9.9-0.8,19.9-2.1,26.5,8c-8.6,0-17.1,0-25.7,0c-2.6-1.5-3.6-3.2-3-5.1
		C9054,7144,9054.7,7143.1,9055.5,7143.1z"/>
	<path class="st7" d="M9842.9,7143.3c10-1.1,19.8-2,26.6,7.8c-8.6,0-17.1,0-25.7,0c-2.5-1.4-3.5-3.1-3-4.9
		C9841.5,7144.2,9842.2,7143.3,9842.9,7143.3z"/>
	<path class="st8" d="M10006.5,7151c6.8-9.1,16.1-10,26.3-7.9c-1,2.6-1.2,5.2-0.6,7.9C10023.6,7151,10015.1,7151,10006.5,7151z"/>
	<path class="st9" d="M13028.2,7151c6.6-9.6,16.1-9.8,26.2-7.9c-0.9,2.6-1.1,5.2-0.5,7.9C13045.3,7151,13036.7,7151,13028.2,7151z"
		/>
	<path class="st10" d="M8302.9,7142.9c5.5,0.2,11,0.4,16.5,0.6c3.3,1.3,4.4,2.9,3.6,4.7c-0.9,1.9-1.8,2.8-2.8,2.8
		c-5.7,0-11.4,0-17.1,0C8303.3,7148.3,8303.2,7145.6,8302.9,7142.9z"/>
	<path class="st11" d="M8320.2,7151c0.1-2.5-0.2-5-0.8-7.5c7.7-1.5,14.2-0.5,17.9,7.5C8331.6,7151,8325.9,7151,8320.2,7151z"/>
	<path class="st12" d="M8499.9,7151c-0.3-2.7,0-5.4,0.8-8c5.6,0.2,11.3,0.3,16.9,0.5c-0.4,2.5-0.6,5-0.6,7.5
		C8511.4,7151,8505.7,7151,8499.9,7151z"/>
	<path class="st13" d="M9055.5,7143.1c0.9,2.6,1.1,5.3,0.9,8c-5.7,0-11.4,0-17.1,0c0-2.5-0.2-5-0.6-7.5
		C9044.2,7143.4,9049.9,7143.2,9055.5,7143.1z"/>
	<path class="st14" d="M9219,7151c3.7-7.6,10.2-9,17.8-7.7c2.3,1.9,3,3.7,2,5.3c-0.9,1.6-1.8,2.3-2.7,2.3
		C9230.4,7151,9224.7,7151,9219,7151z"/>
	<path class="st15" d="M9236.1,7151c-0.2-2.6,0-5.2,0.7-7.7c5.5-0.2,11-0.4,16.5-0.6c-0.2,2.7-0.2,5.5-0.1,8.2
		C9247.5,7151,9241.8,7151,9236.1,7151z"/>
	<path class="st16" d="M12848.1,7143.3c5.5,0.1,11,0.3,16.5,0.4c3.3,1.2,4.6,2.7,3.8,4.5c-0.9,1.9-1.8,2.9-2.8,2.9
		c-5.7,0-11.4,0-17.1,0C12848.5,7148.4,12848.4,7145.9,12848.1,7143.3z"/>
	<path class="st17" d="M12865.5,7151c-0.1-2.5-0.4-4.9-0.9-7.4c7.6-1.4,14.3-0.7,18.1,7.4C12877,7151,12871.2,7151,12865.5,7151z"/>
	<path class="st18" d="M9842.9,7143.3c0.8,2.5,1.1,5.1,0.9,7.8c-5.7,0-11.4,0-17.1,0c0.1-2.6,0-5.1-0.4-7.7
		C9831.8,7143.3,9837.4,7143.3,9842.9,7143.3z"/>
	<path class="st0" d="M12045.1,6081c-699.8-30.1-1229.7-346.9-1587-948.9c-117.1-197.2-179.7-414.6-205.7-642.5
		c-35.7-312.5-5.1-617.1,105.5-912.7c176.1-470.5,642.2-972.7,1252.7-1121.2c206.7-50.3,415.9-66.5,628.1-49
		c190.4,15.7,373.5,60.6,550.9,130.3c8,3.1,15.8,6.6,23.8,9.5c12.5,4.6,13.3,13.1,8.5,23.8c-7,15.6-14,31.2-21,46.8
		c-67.3,150.9-134.6,301.8-202,452.6c-13.9,31.1-14.4,31.5-46.1,18.8c-191.5-76.2-390.4-104.8-595.2-87.3
		c-295.9,25.3-548.1,145.6-756.5,357c-174.4,176.9-295.9,383.7-339.7,630c-94.2,529.8,73.4,957.7,509.8,1275.5
		c189.1,137.7,403.4,207.9,637.1,221.3c246.6,14.1,481.2-28.7,693.8-157.3c332.5-201.1,541.1-490.9,607-877.8
		c9.3-54.9,12.1-110.5,15.6-166c2.4-39.5,4.1-33.7,37.6-33.7c175.4-0.1,350.9-0.1,526.3,0c38.5,0,39,0.3,37.9,40.6
		c-15,519.9-214.4,956.1-596.5,1308.3c-234.2,215.9-505,363.9-816.9,434.7C12376.8,6064.8,12198.5,6083.2,12045.1,6081z"/>
	<path class="st0" d="M5488,4240.5c0,579.1,0.1,1158.1-0.1,1737.2c0,59.9,6.5,51.4-52.8,51.5c-165.4,0.4-330.9,0.1-496.3,0.1
		c-10,0-20-0.2-29.9-0.2c-10.6,0-15.2-6.1-15.6-15.9c-0.4-10-0.4-20-0.4-29.9c0-1161,0-2321.9,0-3482.9c0-4.3-0.1-8.6,0-12.8
		c0.9-32.1,0.9-32.8,34-32.8c176.9-0.2,353.7-0.2,530.6,0c29.6,0,29.7,0.8,30.5,31.5c0.3,10,0,20,0,29.9
		C5488,3091,5488,3665.8,5488,4240.5z"/>
	<path class="st0" d="M11418.6,7141.8c-30.9-0.6-61.7-1.2-92.6-1.8c-0.1-178.1-0.2-356.2-0.3-534.2c0-8.5,0.2-17.1,0-25.6
		c-0.7-30.4-0.7-30.9-30-31.1c-64.1-0.4-128.2-0.1-192.3-0.1c-10,0-20,0.3-29.9-0.1c-27.8-1.2-28.3-2-28.2-34.5
		c0.1-31,0.1-31.9,29.9-31.9c195.2-0.3,390.4-0.2,585.5,0.1c10.4,0,25.8-5,28.7,10.1c3.2,16.4,5.9,34.7-2.3,50.1
		c-5,9.4-18.1,6.1-27.8,6.1c-62.7,0.2-125.4,0.1-188.1,0.1c-10,0-19.9,0.3-29.9,0.1c-14-0.3-21.1,5.8-20.5,20.3
		c0.4,10,0,19.9,0,29.9c0,165.3,0.1,330.5-0.1,495.8C11420.7,7110.5,11419.4,7126.2,11418.6,7141.8z"/>
	<path class="st0" d="M4140.7,4243.1c-0.3-176-19.9-350.2-71.4-519.1c-156.3-512.9-484.4-883.6-951.9-1134.6
		c-205.9-110.6-429.5-165.2-662.5-183.1c-263.4-20.2-520.8,6.3-771,93c-276.2,95.8-510.4,256.3-713.6,464.5
		C680.8,3260.7,507,3612.8,461.3,4026.4c-1.5,27.4-12.5,53.4-11.9,81c-1.8,13,4.2,26.9-4.4,39.1c0,65.6,0,131.3,0,196.9
		c9.3,17.1,2.1,35.5,4.4,53.2c6.1,21.9,8.4,44.5,11.7,66.8c10.4,76.2,21.8,152.2,40,227.1c102.1,419.1,331.6,756.1,665.1,1024
		c273.7,219.8,587.9,337.2,938.3,360.3c252.2,16.6,498-11.5,736.2-96.8c257.4-92.1,475-244.6,662.4-442.1c11-11.6,20.3-26,40.1-35.8
		c0,19.1,0,33,0,46.9c0,149.7-0.1,299.5,0.1,449.2c0,32.1,0.6,33,28.5,33c179.7,0.3,359.4,0.3,539.1,0c29.2,0,29.3-0.9,30.1-31.8
		c0.1-4.3,0-8.6,0-12.8C4141.1,5404.1,4141.7,4823.6,4140.7,4243.1z M3546,4251.3c-5.5,664-573.1,1239.2-1254.4,1238.9
		c-669.9-0.3-1254-569.6-1245.5-1249.7c-8.7-696.5,615.4-1268.1,1258.6-1242.8C2945.8,2983.8,3551.7,3560.4,3546,4251.3z"/>
	<path class="st0" d="M9397.7,6569.1c-40.7-46.4-91.1-77.5-150.5-92.4c-64.4-16.2-129.6-16.8-194.8-3.1
		c-68,14.3-124.2,48-169.2,100.8c-62.1,72.9-88.2,157.5-85.1,252.7c4.9,153.4,94.2,271.8,240.5,316.4c5,3.8,10.8,3,16.4,3.1
		c9,1.2,19-3.2,27,4.4c45.7,0,91.3,0,137,0c5.5-5.9,12.9-4,19.6-4.4c5.2-0.2,10.6,0.6,14.7-3.8c66.4-22.2,123.2-57.8,165.7-114.9
		C9518.3,6894.3,9509.3,6696.2,9397.7,6569.1z M9364.8,6940.6c-44.5,115.3-139,158.4-251.6,147.3c-107.3-10.6-173.7-72.1-201.9-175
		c-23.3-85.3-19.4-169.6,17.9-250.5c46-99.9,125.1-136.2,224.1-131.7c125.2,5.8,203.7,78.2,227.2,204c4.7,25.1,6.5,50.8,9,70.5
		C9387.2,6855.5,9380.9,6898.8,9364.8,6940.6z"/>
	<path class="st0" d="M9783.7,6006.8c-0.5-7.1,0-14.3,0-21.4c0-589,0.4-1178.1-0.3-1767.1c-0.2-160.3-23-317.9-64.1-473.1
		c-151.3-572.3-624-1018.7-1049.8-1200.1c-284-121-579.9-161.8-886.3-139.1c-184.8,13.7-363.2,53.7-534.9,123
		c-636.8,257.1-1087,864.8-1146.9,1547.9c-19.9,226.5-1.9,450,57.8,669.5c91.1,334.7,270.9,616.1,520,854.8
		c198.9,190.5,428.2,330.4,693.4,407.8c241.3,70.5,487.1,86.1,736.6,56.6c269.7-31.9,517.1-122.4,741.5-275.5
		c120.7-82.4,228.6-179.5,335.9-286c0,13.7,0,27.4,0,41.1c0,148.3-0.1,296.7,0.1,445c0,38.9,0.3,39.1,40,39.1
		c172.6,0.1,345.2,0,517.7,0c5.7,0,11.4-0.4,17.1,0C9778,6030.7,9784.9,6023.1,9783.7,6006.8z M7935.6,5488.5
		c-681.9,7.2-1248-583.9-1247.8-1248.7c0.2-682.7,607.4-1266,1258-1242.2c645.3-14.8,1244.3,564.4,1243.8,1243.7
		C9189.1,4909.2,8620,5496.1,7935.6,5488.5z"/>
	<path class="st0" d="M10725.4,6854.1c8.8-12.3,18.3-9.8,26.1-11.7c46.2-11,89.6-28.2,126-59.7c73.7-63.9,73.7-162.8,0-226.9
		c-24-20.9-51.4-35.7-81.1-46.3c-44.5-15.8-90.6-25.3-137.8-26c-78.3-1.3-156.7-1.2-235-1.2c-30.7,0-31.4,0.7-31.4,30
		c0,209.4,0.3,418.7,0.5,628.1c30.9,0.3,61.8,0.6,92.7,0.9c0.5-15.6,1.5-31.2,1.6-46.9c0.2-68.3-0.2-136.6,0.2-204.8
		c0.2-31.9,0.7-32.1,33.6-32.6c22.8-0.4,45.6,0.7,68.3-0.3c17.3-0.8,29,6,40.2,18.8c77.5,89,155.8,177.3,233.7,265.9
		c36.2-0.7,72.6,2.8,108.7-2.1C10889.3,7044,10807,6948.7,10725.4,6854.1z M10511,6790.6c-19.1,0.5-24.7-7.7-24.2-25.4
		c0.8-32.7,0.2-65.5,0.3-98.2c0-31.3,0.4-62.6-0.2-93.9c-0.3-15.1,3.5-24.7,21-24.2c72.4,2.1,145.2-6.2,216.9,10.6
		c21,4.9,41,11.9,59.2,23.3c67.1,42.3,66.7,131-0.9,172.6c-40.1,24.7-85.8,30-131.2,33C10605,6791.4,10557.9,6789.3,10511,6790.6z"
		/>
	<path class="st0" d="M12481.4,7125.2c-14.4-29.3-29.3-58.4-43.2-88c-81.7-173.8-163-347.7-244.8-521.4
		c-5.3-11.2-6.7-27.7-19.9-31.1c-22-5.7-45.5-4.9-67.7-0.5c-13.8,2.7-15,19.4-20.3,30.6c-92.7,196.9-185.2,393.8-277.4,590.9
		c-5.3,11.4-13.7,22-12.2,35.8c31.2,0.2,62.5,0.4,93.7,0.6c29.8-66,60.8-131.4,88.9-198.1c10.5-25,24.5-32.9,51-32.2
		c73.9,1.8,148,2,221.9-0.1c26.1-0.7,37.4,9.1,47,31.8c28,66.7,58.5,132.4,88,198.6c25.7-0.2,51.3-0.7,77-0.3
		C12475.5,7142.1,12482.2,7138.2,12481.4,7125.2z M12026.3,6856.6c37.4-92.4,73.4-181.2,113.1-279.2
		c40.8,98.1,77.6,186.6,116.2,279.2C12178.1,6856.6,12105.1,6856.6,12026.3,6856.6z"/>
</g>
</svg>
